# xmcd
#
# Track frame offsets:
#	150
#	17400
#	35300
#
# Disc length: 779 seconds
#
# Revision: 1
# Processed by: cddbd v1.5PL3 Copyright (c) Steve Scherf et al.
# Submitted via: EasyCDDAExtractor 6.2.0.3
#
DISCID=14030903
DTITLE=Andreas Martin - Diese Nacht
DYEAR=1993
DGENRE=Pop
TTITLE0=Diese Nacht
TTITLE1=Ti Amo
TTITLE2=Diese Nacht (Maxi Version)
EXTD=
EXTT0=
EXTT1=
EXTT2=
PLAYORDER=
